#!OML:ASF F:\VICON\USERDATA\INSTALL\rory3\rory3.ASF
:FULLY-SPECIFIED
:DEGREES
64
root 0.241776 18.3568 -1.1716 5.15397 -2.93077 0.0131563
lowerback 11.705 -1.46774 -2.15794
upperback -1.05038 -2.13354 1.71011
thorax -7.54923 -0.912132 3.41578
lowerneck -18.797 -2.96504 -2.17756
upperneck 13.274 -3.96406 2.98412
head 7.25325 -1.72659 0.871551
rclavicle 1.88845e-015 -2.5842e-015
rhumerus -63.7539 6.13167 -96.6131
rradius 104.09
rwrist -19.5294
rhand -18.1907 39.2022
rfingers 7.12502
rthumb 8.08628 9.3769
lclavicle 1.88845e-015 -2.5842e-015
lhumerus -32.5526 -13.7072 93.8406
lradius 115.741
lwrist 31.9928
lhand -26.1814 2.4492
lfingers 7.12502
lthumb 0.370542 32.4286
rfemur -41.617 1.63021 24.1852
rtibia 41.4053
rfoot -3.04057 -1.89633
rtoes -13.5123
lfemur 15.4023 -2.59692 -26.8115
ltibia 24.923
lfoot 25.3893 -13.9892
ltoes -29.9208
65
root 0.250874 18.3969 -0.681847 5.27296 -3.10581 -0.0648207
lowerback 11.5581 -1.54337 -1.89328
upperback -1.10823 -2.19121 1.75974
thorax -7.53094 -0.950014 3.3245
lowerneck -18.7844 -2.9623 -2.24989
upperneck 13.2211 -3.94345 3.00525
head 7.2351 -1.71906 0.892907
rclavicle 3.60297e-014 4.37326e-015
rhumerus -63.8683 5.91483 -96.4205
rradius 104.269
rwrist -19.2217
rhand -17.983 38.973
rfingers 7.12502
rthumb 8.28673 9.15551
lclavicle 3.60297e-014 4.37326e-015
lhumerus -32.8915 -13.8162 93.6802
lradius 115.502
lwrist 32.1613
lhand -26.1653 1.87952
lfingers 7.12502
lthumb 0.386052 31.8589
rfemur -40.8715 1.38074 24.6191
rtibia 37.2573
rfoot -2.27493 -1.66437
rtoes -14.2684
lfemur 15.8594 -3.13441 -26.9933
ltibia 25.2871
lfoot 27.4053 -17.1365
ltoes -15.9743
66
root 0.255693 18.4248 -0.192839 5.33462 -3.24403 0.0991693
lowerback 11.4016 -1.59044 -1.94006
upperback -1.14075 -2.25854 1.76261
thorax -7.47 -0.982013 3.35987
lowerneck -18.7447 -2.97562 -2.41792
upperneck 13.2578 -3.93906 3.11929
head 7.24631 -1.71498 0.958156
rclavicle -6.06293e-015 -2.5842e-014
rhumerus -64.0329 5.70629 -96.2268
rradius 104.594
rwrist -18.6806
rhand -18.0866 38.8129
rfingers 7.12502
rthumb 8.18678 8.99154
lclavicle -6.06293e-015 -2.5842e-014
lhumerus -33.4807 -13.8642 93.6277
lradius 115.397
lwrist 32.2645
lhand -25.8723 2.14631
lfingers 7.12502
lthumb 0.669126 32.125
rfemur -40.1272 0.993407 24.8594
rtibia 33.6325
rfoot -1.64044 -1.88794
rtoes -15.3285
lfemur 15.9839 -3.78361 -27.4832
ltibia 26.0882
lfoot 27.9511 -13.6182
ltoes 4.74376
67
root 0.250557 18.4362 0.287768 5.33091 -3.49768 0.538139
lowerback 11.2314 -1.58861 -2.44118
upperback -1.03556 -2.32702 1.70357
thorax -7.23884 -1.00316 3.58117
lowerneck -18.8657 -2.93981 -2.45538
upperneck 13.227 -3.87254 3.09485
head 7.25473 -1.68636 0.96285
rclavicle 2.41523e-014 -1.43125e-014
rhumerus -63.9543 5.5403 -96.0724
rradius 105.051
rwrist -18.2384
rhand -18.0147 39.1734
rfingers 7.12502
rthumb 8.25617 9.35477
lclavicle 2.41523e-014 -1.43125e-014
lhumerus -33.6116 -13.863 93.4044
lradius 115.115
lwrist 32.4214
lhand -25.8346 2.2926
lfingers 7.12502
lthumb 0.705526 32.2712
rfemur -39.4859 0.567752 24.9299
rtibia 30.6599
rfoot -1.3158 -2.68779
rtoes -16.0754
lfemur 16.4307 -3.97809 -28.1691
ltibia 27.3363
lfoot 24.8092 -14.4047
ltoes -3.35491
68
root 0.24696 18.4173 0.758969 5.24127 -3.66722 1.03167
lowerback 11.1495 -1.5514 -2.91956
upperback -0.856435 -2.34813 1.58454
thorax -6.98579 -1.00612 3.7195
lowerneck -19.2089 -2.9909 -2.33045
upperneck 13.2595 -3.93684 2.9143
head 7.31809 -1.72395 0.871966
rclavicle 3.28492e-014 -1.15295e-014
rhumerus -63.5367 5.2007 -95.9695
rradius 105.257
rwrist -17.9344
rhand -17.9991 39.3895
rfingers 7.12502
rthumb 8.27121 9.57145
lclavicle 3.28492e-014 -1.15295e-014
lhumerus -33.5071 -14.1151 93.24
lradius 114.705
lwrist 32.5137
lhand -25.7736 2.09269
lfingers 7.12502
lthumb 0.764388 32.0711
rfemur -38.9883 0.00755307 24.9841
rtibia 28.4511
rfoot -1.13399 -3.76349
rtoes -17.6017
lfemur 16.4802 -4.04399 -28.7811
ltibia 28.9477
lfoot 27.3078 -19.9028
ltoes -19.5445
69
root 0.251306 18.3952 1.23054 5.26204 -3.49154 1.31093
lowerback 11.2074 -1.60739 -2.97624
upperback -0.888561 -2.43826 1.49648
thorax -7.04706 -1.04763 3.67644
lowerneck -19.4266 -3.09171 -2.20105
upperneck 13.4159 -4.07339 2.71627
head 7.40237 -1.79809 0.766417
rclavicle 1.22253e-014 -5.96354e-015
rhumerus -63.3075 4.7947 -95.9323
rradius 105.375
rwrist -17.7646
rhand -18.0634 39.2477
rfingers 7.12502
rthumb 8.20914 9.42722
lclavicle 1.22253e-014 -5.96354e-015
lhumerus -33.7364 -14.429 93.2162
lradius 114.209
lwrist 32.3101
lhand -25.8449 1.7501
lfingers 7.12502
lthumb 0.695583 31.7287
rfemur -38.8114 -0.734527 25.2259
rtibia 27.2205
rfoot -1.14268 -4.85053
rtoes -17.9399
lfemur 16.0481 -4.45 -29.0655
ltibia 30.8131
lfoot 28.368 -21.2431
ltoes -15.6045
70
root 0.257224 18.3816 1.69978 5.11753 -3.22356 1.46779
lowerback 11.6439 -1.64811 -2.80055
upperback -0.949948 -2.4877 1.382
thorax -7.36916 -1.0713 3.48564
lowerneck -19.4825 -3.22513 -2.20823
upperneck 13.3375 -4.25493 2.74942
head 7.39138 -1.88192 0.756204
rclavicle -1.39149e-015 3.97569e-015
rhumerus -63.2499 4.25772 -95.9092
rradius 105.602
rwrist -17.4909
rhand -18.2046 39.2831
rfingers 7.12502
rthumb 8.07284 9.45732
lclavicle -1.39149e-015 3.97569e-015
lhumerus -34.0617 -14.7521 93.2646
lradius 113.612
lwrist 32.1331
lhand -25.9705 1.53647
lfingers 7.12502
lthumb 0.574281 31.5154
rfemur -38.5657 -1.55884 25.5773
rtibia 26.8449
rfoot 0.0219459 -5.60847
rtoes -19.139
lfemur 15.4806 -5.07897 -29.2538
ltibia 32.9524
lfoot 30.3209 -18.9568
ltoes -3.43748
71
root 0.261488 18.3392 2.17388 4.7289 -3.01397 1.80808
lowerback 12.0764 -1.6583 -2.87353
upperback -0.913059 -2.53115 1.26049
thorax -7.57493 -1.08675 3.42384
lowerneck -19.2557 -3.30348 -2.52222
upperneck 13.136 -4.32383 3.02641
head 7.30261 -1.90844 0.893162
rclavicle -2.18663e-015 7.95139e-015
rhumerus -63.0999 3.74775 -95.8087
rradius 105.706
rwrist -17.3265
rhand -17.9967 39.1944
rfingers 7.12502
rthumb 8.27353 9.37643
lclavicle -2.18663e-015 7.95139e-015
lhumerus -34.4542 -15.0706 93.3899
lradius 112.971
lwrist 31.9492
lhand -26.0614 1.91998
lfingers 7.12502
lthumb 0.486431 31.8992
rfemur -38.2055 -2.33896 25.6769
rtibia 27.2187
rfoot 0.701982 -5.85337
rtoes -19.7584
lfemur 15.4697 -5.42957 -29.5931
ltibia 35.3448
lfoot 28.9727 -20.711
ltoes -0.505469
72
root 0.267573 18.2938 2.65529 4.45034 -3.03232 2.02879
lowerback 12.2793 -1.6332 -2.92463
upperback -0.952586 -2.51387 1.22333
thorax -7.73399 -1.07217 3.4206
lowerneck -18.7966 -3.37454 -2.67672
upperneck 13.0039 -4.37067 2.94106
head 7.18497 -1.95301 0.890952
rclavicle -1.18277e-014 -2.78299e-015
rhumerus -62.8752 3.47839 -95.7007
rradius 105.492
rwrist -17.116
rhand -17.9561 39.1684
rfingers 7.12502
rthumb 8.31266 9.35199
lclavicle -1.18277e-014 -2.78299e-015
lhumerus -35.0387 -15.2037 93.6317
lradius 112.311
lwrist 31.9055
lhand -25.9909 2.62916
lfingers 7.12502
lthumb 0.554498 32.6082
rfemur -37.937 -2.91068 25.8624
rtibia 28.1052
rfoot 0.881187 -5.56428
rtoes -20.03
lfemur 14.8141 -5.59575 -29.8127
ltibia 38.0616
lfoot 28.9245 -20.9437
ltoes -6.80681
73
root 0.27031 18.2199 3.12068 4.29882 -3.1352 2.00597
lowerback 12.423 -1.56226 -2.79995
upperback -0.909162 -2.40256 1.24098
thorax -7.78182 -1.02201 3.35379
lowerneck -18.7644 -3.3816 -2.69783
upperneck 13.007 -4.36011 2.85313
head 7.17853 -1.95768 0.867243
rclavicle 2.38542e-014 -1.51076e-014
rhumerus -62.374 3.3602 -95.666
rradius 105.303
rwrist -17.1528
rhand -18.0856 39.2362
rfingers 7.12502
rthumb 8.18776 9.41487
lclavicle 2.38542e-014 -1.51076e-014
lhumerus -35.4251 -15.2144 93.7748
lradius 111.569
lwrist 31.8053
lhand -25.8196 2.49577
lfingers 7.12502
lthumb 0.719995 32.4743
rfemur -37.8937 -3.19508 26.2444
rtibia 29.4208
rfoot 0.95179 -4.92688
rtoes -21.7066
lfemur 14.0928 -5.451 -29.6382
ltibia 41.0286
lfoot 27.4666 -23.4715
ltoes -15.2071
74
root 0.271626 18.1437 3.58054 4.01395 -3.15201 1.82615
lowerback 12.6411 -1.58238 -2.56233
upperback -0.731489 -2.39087 1.31646
thorax -7.72158 -1.02791 3.30186
lowerneck -18.7704 -3.29242 -2.8018
upperneck 12.9388 -4.21334 2.87493
head 7.15575 -1.89105 0.908628
rclavicle 3.97569e-016 -2.14687e-014
rhumerus -61.5944 3.52756 -95.7562
rradius 105.061
rwrist -17.2597
rhand -18.4342 39.2458
rfingers 7.12502
rthumb 7.85127 9.41159
lclavicle 3.97569e-016 -2.14687e-014
lhumerus -35.7367 -14.854 93.8303
lradius 110.792
lwrist 31.5396
lhand -26.1476 1.94062
lfingers 7.12502
lthumb 0.403176 31.92
rfemur -37.5662 -3.23968 26.5783
rtibia 30.8737
rfoot 1.09427 -4.104
rtoes -21.8336
lfemur 13.0971 -5.19204 -29.1407
ltibia 44.2899
lfoot 27.3694 -23.814
ltoes -16.0964
